<mxfile host="app.diagrams.net" modified="2023-02-04T14:18:09.553Z" agent="5.0 (Windows NT 10.0; Win64; x64) AppleWebKit/537.36 (KHTML, like Gecko) Chrome/108.0.0.0 YaBrowser/23.1.1.1138 Yowser/2.5 Safari/537.36" etag="IluZ8ivqrCZgCl3HSQ7f" version="20.8.16" type="github">
  <diagram id="R2lEEEUBdFMjLlhIrx00" name="Page-1">
    <mxGraphModel dx="1733" dy="979" grid="1" gridSize="10" guides="1" tooltips="1" connect="1" arrows="1" fold="1" page="1" pageScale="1" pageWidth="3300" pageHeight="4681" math="0" shadow="0" extFonts="Permanent Marker^https://fonts.googleapis.com/css?family=Permanent+Marker">
      <root>
        <mxCell id="0" />
        <mxCell id="1" parent="0" />
        <mxCell id="rUWU4Eejl8Ele33Ssw0W-1" value="Product" style="swimlane;fontStyle=0;childLayout=stackLayout;horizontal=1;startSize=26;horizontalStack=0;resizeParent=1;resizeParentMax=0;resizeLast=0;collapsible=1;marginBottom=0;align=center;fontSize=14;" vertex="1" parent="1">
          <mxGeometry x="60" y="80" width="390" height="176" as="geometry" />
        </mxCell>
        <mxCell id="rUWU4Eejl8Ele33Ssw0W-2" value="+ id: PK INT" style="text;strokeColor=none;fillColor=none;spacingLeft=4;spacingRight=4;overflow=hidden;rotatable=0;points=[[0,0.5],[1,0.5]];portConstraint=eastwest;fontSize=12;" vertex="1" parent="rUWU4Eejl8Ele33Ssw0W-1">
          <mxGeometry y="26" width="390" height="30" as="geometry" />
        </mxCell>
        <mxCell id="rUWU4Eejl8Ele33Ssw0W-3" value="+ name: VARCHAR(60)" style="text;strokeColor=none;fillColor=none;spacingLeft=4;spacingRight=4;overflow=hidden;rotatable=0;points=[[0,0.5],[1,0.5]];portConstraint=eastwest;fontSize=12;" vertex="1" parent="rUWU4Eejl8Ele33Ssw0W-1">
          <mxGeometry y="56" width="390" height="30" as="geometry" />
        </mxCell>
        <mxCell id="rUWU4Eejl8Ele33Ssw0W-4" value="+ description: VARCHAR(255)" style="text;strokeColor=none;fillColor=none;spacingLeft=4;spacingRight=4;overflow=hidden;rotatable=0;points=[[0,0.5],[1,0.5]];portConstraint=eastwest;fontSize=12;" vertex="1" parent="rUWU4Eejl8Ele33Ssw0W-1">
          <mxGeometry y="86" width="390" height="30" as="geometry" />
        </mxCell>
        <mxCell id="rUWU4Eejl8Ele33Ssw0W-5" value="+ price : INT" style="text;strokeColor=none;fillColor=none;spacingLeft=4;spacingRight=4;overflow=hidden;rotatable=0;points=[[0,0.5],[1,0.5]];portConstraint=eastwest;fontSize=12;" vertex="1" parent="rUWU4Eejl8Ele33Ssw0W-1">
          <mxGeometry y="116" width="390" height="30" as="geometry" />
        </mxCell>
        <mxCell id="rUWU4Eejl8Ele33Ssw0W-6" value="+ category_id : FK Category INT" style="text;strokeColor=none;fillColor=none;spacingLeft=4;spacingRight=4;overflow=hidden;rotatable=0;points=[[0,0.5],[1,0.5]];portConstraint=eastwest;fontSize=12;" vertex="1" parent="rUWU4Eejl8Ele33Ssw0W-1">
          <mxGeometry y="146" width="390" height="30" as="geometry" />
        </mxCell>
        <mxCell id="rUWU4Eejl8Ele33Ssw0W-7" value="Categoryt" style="swimlane;fontStyle=0;childLayout=stackLayout;horizontal=1;startSize=26;horizontalStack=0;resizeParent=1;resizeParentMax=0;resizeLast=0;collapsible=1;marginBottom=0;align=center;fontSize=14;" vertex="1" parent="1">
          <mxGeometry x="560" y="80" width="390" height="86" as="geometry" />
        </mxCell>
        <mxCell id="rUWU4Eejl8Ele33Ssw0W-8" value="+ id: PK INT" style="text;strokeColor=none;fillColor=none;spacingLeft=4;spacingRight=4;overflow=hidden;rotatable=0;points=[[0,0.5],[1,0.5]];portConstraint=eastwest;fontSize=12;" vertex="1" parent="rUWU4Eejl8Ele33Ssw0W-7">
          <mxGeometry y="26" width="390" height="30" as="geometry" />
        </mxCell>
        <mxCell id="rUWU4Eejl8Ele33Ssw0W-9" value="+ name: VARCHAR(60)" style="text;strokeColor=none;fillColor=none;spacingLeft=4;spacingRight=4;overflow=hidden;rotatable=0;points=[[0,0.5],[1,0.5]];portConstraint=eastwest;fontSize=12;" vertex="1" parent="rUWU4Eejl8Ele33Ssw0W-7">
          <mxGeometry y="56" width="390" height="30" as="geometry" />
        </mxCell>
        <mxCell id="rUWU4Eejl8Ele33Ssw0W-13" value="" style="edgeStyle=entityRelationEdgeStyle;fontSize=12;html=1;endArrow=ERoneToMany;rounded=0;exitX=0;exitY=0.5;exitDx=0;exitDy=0;entryX=1;entryY=0.5;entryDx=0;entryDy=0;" edge="1" parent="1" source="rUWU4Eejl8Ele33Ssw0W-8" target="rUWU4Eejl8Ele33Ssw0W-6">
          <mxGeometry width="100" height="100" relative="1" as="geometry">
            <mxPoint x="450" y="218" as="sourcePoint" />
            <mxPoint x="510" y="240" as="targetPoint" />
          </mxGeometry>
        </mxCell>
        <mxCell id="rUWU4Eejl8Ele33Ssw0W-14" value="User" style="swimlane;fontStyle=0;childLayout=stackLayout;horizontal=1;startSize=26;horizontalStack=0;resizeParent=1;resizeParentMax=0;resizeLast=0;collapsible=1;marginBottom=0;align=center;fontSize=14;" vertex="1" parent="1">
          <mxGeometry x="20" y="410" width="410" height="176" as="geometry" />
        </mxCell>
        <mxCell id="rUWU4Eejl8Ele33Ssw0W-15" value="+id : PK INT" style="text;strokeColor=none;fillColor=none;spacingLeft=4;spacingRight=4;overflow=hidden;rotatable=0;points=[[0,0.5],[1,0.5]];portConstraint=eastwest;fontSize=12;" vertex="1" parent="rUWU4Eejl8Ele33Ssw0W-14">
          <mxGeometry y="26" width="410" height="30" as="geometry" />
        </mxCell>
        <mxCell id="rUWU4Eejl8Ele33Ssw0W-32" value="" style="edgeStyle=entityRelationEdgeStyle;fontSize=12;html=1;endArrow=ERmandOne;startArrow=ERmandOne;rounded=0;entryX=0;entryY=0.25;entryDx=0;entryDy=0;" edge="1" parent="rUWU4Eejl8Ele33Ssw0W-14" target="rUWU4Eejl8Ele33Ssw0W-31">
          <mxGeometry width="100" height="100" relative="1" as="geometry">
            <mxPoint x="400" y="40" as="sourcePoint" />
            <mxPoint x="500" y="-60" as="targetPoint" />
          </mxGeometry>
        </mxCell>
        <mxCell id="rUWU4Eejl8Ele33Ssw0W-37" value="Text" style="edgeLabel;html=1;align=center;verticalAlign=middle;resizable=0;points=[];" vertex="1" connectable="0" parent="rUWU4Eejl8Ele33Ssw0W-32">
          <mxGeometry x="0.416" y="1" relative="1" as="geometry">
            <mxPoint as="offset" />
          </mxGeometry>
        </mxCell>
        <mxCell id="rUWU4Eejl8Ele33Ssw0W-16" value="+name: VARCHAR(60)" style="text;strokeColor=none;fillColor=none;spacingLeft=4;spacingRight=4;overflow=hidden;rotatable=0;points=[[0,0.5],[1,0.5]];portConstraint=eastwest;fontSize=12;" vertex="1" parent="rUWU4Eejl8Ele33Ssw0W-14">
          <mxGeometry y="56" width="410" height="30" as="geometry" />
        </mxCell>
        <mxCell id="rUWU4Eejl8Ele33Ssw0W-24" value="+surname: VARCHAR(60)" style="text;strokeColor=none;fillColor=none;spacingLeft=4;spacingRight=4;overflow=hidden;rotatable=0;points=[[0,0.5],[1,0.5]];portConstraint=eastwest;fontSize=12;" vertex="1" parent="rUWU4Eejl8Ele33Ssw0W-14">
          <mxGeometry y="86" width="410" height="30" as="geometry" />
        </mxCell>
        <mxCell id="rUWU4Eejl8Ele33Ssw0W-17" value="+username: VARCHAR(60) UNIQUEÂ " style="text;strokeColor=none;fillColor=none;spacingLeft=4;spacingRight=4;overflow=hidden;rotatable=0;points=[[0,0.5],[1,0.5]];portConstraint=eastwest;fontSize=12;" vertex="1" parent="rUWU4Eejl8Ele33Ssw0W-14">
          <mxGeometry y="116" width="410" height="30" as="geometry" />
        </mxCell>
        <mxCell id="rUWU4Eejl8Ele33Ssw0W-25" value="+email: VARCHAR(120) UNIQUE" style="text;strokeColor=none;fillColor=none;spacingLeft=4;spacingRight=4;overflow=hidden;rotatable=0;points=[[0,0.5],[1,0.5]];portConstraint=eastwest;fontSize=12;" vertex="1" parent="rUWU4Eejl8Ele33Ssw0W-14">
          <mxGeometry y="146" width="410" height="30" as="geometry" />
        </mxCell>
        <mxCell id="rUWU4Eejl8Ele33Ssw0W-27" value="Customer" style="swimlane;fontStyle=0;childLayout=stackLayout;horizontal=1;startSize=26;horizontalStack=0;resizeParent=1;resizeParentMax=0;resizeLast=0;collapsible=1;marginBottom=0;align=center;fontSize=14;" vertex="1" parent="1">
          <mxGeometry x="540" y="280" width="390" height="116" as="geometry" />
        </mxCell>
        <mxCell id="rUWU4Eejl8Ele33Ssw0W-28" value="+ id: PK INT" style="text;strokeColor=none;fillColor=none;spacingLeft=4;spacingRight=4;overflow=hidden;rotatable=0;points=[[0,0.5],[1,0.5]];portConstraint=eastwest;fontSize=12;" vertex="1" parent="rUWU4Eejl8Ele33Ssw0W-27">
          <mxGeometry y="26" width="390" height="30" as="geometry" />
        </mxCell>
        <mxCell id="rUWU4Eejl8Ele33Ssw0W-29" value="+ cashback: INT" style="text;strokeColor=none;fillColor=none;spacingLeft=4;spacingRight=4;overflow=hidden;rotatable=0;points=[[0,0.5],[1,0.5]];portConstraint=eastwest;fontSize=12;" vertex="1" parent="rUWU4Eejl8Ele33Ssw0W-27">
          <mxGeometry y="56" width="390" height="30" as="geometry" />
        </mxCell>
        <mxCell id="rUWU4Eejl8Ele33Ssw0W-31" value="&lt;span style=&quot;color: rgb(0, 0, 0); font-family: Helvetica; font-size: 12px; font-style: normal; font-variant-ligatures: normal; font-variant-caps: normal; font-weight: 400; letter-spacing: normal; orphans: 2; text-align: left; text-indent: 0px; text-transform: none; widows: 2; word-spacing: 0px; -webkit-text-stroke-width: 0px; background-color: rgb(251, 251, 251); text-decoration-thickness: initial; text-decoration-style: initial; text-decoration-color: initial; float: none; display: inline !important;&quot;&gt;+ user_id : FK INT&lt;/span&gt;" style="text;whiteSpace=wrap;html=1;" vertex="1" parent="rUWU4Eejl8Ele33Ssw0W-27">
          <mxGeometry y="86" width="390" height="30" as="geometry" />
        </mxCell>
        <mxCell id="rUWU4Eejl8Ele33Ssw0W-33" value="Admin" style="swimlane;fontStyle=0;childLayout=stackLayout;horizontal=1;startSize=26;horizontalStack=0;resizeParent=1;resizeParentMax=0;resizeLast=0;collapsible=1;marginBottom=0;align=center;fontSize=14;" vertex="1" parent="1">
          <mxGeometry x="572" y="650" width="390" height="116" as="geometry" />
        </mxCell>
        <mxCell id="rUWU4Eejl8Ele33Ssw0W-34" value="+ id: PK INT" style="text;strokeColor=none;fillColor=none;spacingLeft=4;spacingRight=4;overflow=hidden;rotatable=0;points=[[0,0.5],[1,0.5]];portConstraint=eastwest;fontSize=12;" vertex="1" parent="rUWU4Eejl8Ele33Ssw0W-33">
          <mxGeometry y="26" width="390" height="30" as="geometry" />
        </mxCell>
        <mxCell id="rUWU4Eejl8Ele33Ssw0W-35" value="+ role_id: FKÂ  INTÂ " style="text;strokeColor=none;fillColor=none;spacingLeft=4;spacingRight=4;overflow=hidden;rotatable=0;points=[[0,0.5],[1,0.5]];portConstraint=eastwest;fontSize=12;" vertex="1" parent="rUWU4Eejl8Ele33Ssw0W-33">
          <mxGeometry y="56" width="390" height="30" as="geometry" />
        </mxCell>
        <mxCell id="rUWU4Eejl8Ele33Ssw0W-36" value="&lt;span style=&quot;color: rgb(0, 0, 0); font-family: Helvetica; font-size: 12px; font-style: normal; font-variant-ligatures: normal; font-variant-caps: normal; font-weight: 400; letter-spacing: normal; orphans: 2; text-align: left; text-indent: 0px; text-transform: none; widows: 2; word-spacing: 0px; -webkit-text-stroke-width: 0px; background-color: rgb(251, 251, 251); text-decoration-thickness: initial; text-decoration-style: initial; text-decoration-color: initial; float: none; display: inline !important;&quot;&gt;+ user_id : FK INT&lt;/span&gt;" style="text;whiteSpace=wrap;html=1;" vertex="1" parent="rUWU4Eejl8Ele33Ssw0W-33">
          <mxGeometry y="86" width="390" height="30" as="geometry" />
        </mxCell>
        <mxCell id="rUWU4Eejl8Ele33Ssw0W-38" value="" style="edgeStyle=entityRelationEdgeStyle;fontSize=12;html=1;endArrow=ERmandOne;startArrow=ERmandOne;rounded=0;entryX=0;entryY=0.25;entryDx=0;entryDy=0;" edge="1" parent="1" target="rUWU4Eejl8Ele33Ssw0W-36">
          <mxGeometry width="100" height="100" relative="1" as="geometry">
            <mxPoint x="422" y="450" as="sourcePoint" />
            <mxPoint x="572" y="579.5" as="targetPoint" />
          </mxGeometry>
        </mxCell>
        <mxCell id="rUWU4Eejl8Ele33Ssw0W-39" value="Text" style="edgeLabel;html=1;align=center;verticalAlign=middle;resizable=0;points=[];" vertex="1" connectable="0" parent="rUWU4Eejl8Ele33Ssw0W-38">
          <mxGeometry x="0.416" y="1" relative="1" as="geometry">
            <mxPoint as="offset" />
          </mxGeometry>
        </mxCell>
        <mxCell id="rUWU4Eejl8Ele33Ssw0W-40" value="Role" style="swimlane;fontStyle=0;childLayout=stackLayout;horizontal=1;startSize=26;horizontalStack=0;resizeParent=1;resizeParentMax=0;resizeLast=0;collapsible=1;marginBottom=0;align=center;fontSize=14;" vertex="1" parent="1">
          <mxGeometry x="990" y="840" width="390" height="56" as="geometry" />
        </mxCell>
        <mxCell id="rUWU4Eejl8Ele33Ssw0W-41" value="+ id: PK INT" style="text;strokeColor=none;fillColor=none;spacingLeft=4;spacingRight=4;overflow=hidden;rotatable=0;points=[[0,0.5],[1,0.5]];portConstraint=eastwest;fontSize=12;" vertex="1" parent="rUWU4Eejl8Ele33Ssw0W-40">
          <mxGeometry y="26" width="390" height="30" as="geometry" />
        </mxCell>
        <mxCell id="rUWU4Eejl8Ele33Ssw0W-44" value="SUPER-ADMIN&lt;br&gt;MODERATOR\&lt;br&gt;MANAGER&lt;br&gt;" style="text;html=1;align=center;verticalAlign=middle;resizable=0;points=[];autosize=1;strokeColor=none;fillColor=none;" vertex="1" parent="1">
          <mxGeometry x="1090" y="766" width="110" height="60" as="geometry" />
        </mxCell>
        <mxCell id="rUWU4Eejl8Ele33Ssw0W-45" value="" style="edgeStyle=entityRelationEdgeStyle;fontSize=12;html=1;endArrow=ERoneToMany;rounded=0;entryX=0;entryY=0.5;entryDx=0;entryDy=0;exitX=1;exitY=0.5;exitDx=0;exitDy=0;" edge="1" parent="1" source="rUWU4Eejl8Ele33Ssw0W-35" target="rUWU4Eejl8Ele33Ssw0W-41">
          <mxGeometry width="100" height="100" relative="1" as="geometry">
            <mxPoint x="720" y="530" as="sourcePoint" />
            <mxPoint x="760" y="470" as="targetPoint" />
          </mxGeometry>
        </mxCell>
        <mxCell id="rUWU4Eejl8Ele33Ssw0W-46" value="PERMISSIONS" style="swimlane;fontStyle=0;childLayout=stackLayout;horizontal=1;startSize=26;horizontalStack=0;resizeParent=1;resizeParentMax=0;resizeLast=0;collapsible=1;marginBottom=0;align=center;fontSize=14;" vertex="1" parent="1">
          <mxGeometry x="1670" y="780" width="390" height="136" as="geometry" />
        </mxCell>
        <mxCell id="rUWU4Eejl8Ele33Ssw0W-47" value="+ id: PK INT" style="text;strokeColor=none;fillColor=none;spacingLeft=4;spacingRight=4;overflow=hidden;rotatable=0;points=[[0,0.5],[1,0.5]];portConstraint=eastwest;fontSize=12;" vertex="1" parent="rUWU4Eejl8Ele33Ssw0W-46">
          <mxGeometry y="26" width="390" height="30" as="geometry" />
        </mxCell>
        <mxCell id="rUWU4Eejl8Ele33Ssw0W-49" value="&lt;span style=&quot;color: rgb(0, 0, 0); font-family: Helvetica; font-size: 12px; font-style: normal; font-variant-ligatures: normal; font-variant-caps: normal; font-weight: 400; letter-spacing: normal; orphans: 2; text-align: left; text-indent: 0px; text-transform: none; widows: 2; word-spacing: 0px; -webkit-text-stroke-width: 0px; background-color: rgb(251, 251, 251); text-decoration-thickness: initial; text-decoration-style: initial; text-decoration-color: initial; float: none; display: inline !important;&quot;&gt;+name: VARCHAR(255)&lt;/span&gt;" style="text;whiteSpace=wrap;html=1;" vertex="1" parent="rUWU4Eejl8Ele33Ssw0W-46">
          <mxGeometry y="56" width="390" height="40" as="geometry" />
        </mxCell>
        <mxCell id="rUWU4Eejl8Ele33Ssw0W-50" value="+role_id: FK Roles" style="text;whiteSpace=wrap;html=1;" vertex="1" parent="rUWU4Eejl8Ele33Ssw0W-46">
          <mxGeometry y="96" width="390" height="40" as="geometry" />
        </mxCell>
        <mxCell id="rUWU4Eejl8Ele33Ssw0W-48" value="GET_USER&lt;br&gt;CHANGE_PASSWORD&lt;br&gt;DELETE_PRODUCT" style="text;html=1;align=center;verticalAlign=middle;resizable=0;points=[];autosize=1;strokeColor=none;fillColor=none;" vertex="1" parent="1">
          <mxGeometry x="1505" y="500" width="150" height="60" as="geometry" />
        </mxCell>
        <mxCell id="rUWU4Eejl8Ele33Ssw0W-51" value="" style="edgeStyle=entityRelationEdgeStyle;fontSize=12;html=1;endArrow=ERoneToMany;rounded=0;entryX=0;entryY=0.5;entryDx=0;entryDy=0;" edge="1" parent="1" source="rUWU4Eejl8Ele33Ssw0W-41" target="rUWU4Eejl8Ele33Ssw0W-50">
          <mxGeometry width="100" height="100" relative="1" as="geometry">
            <mxPoint x="1520" y="930" as="sourcePoint" />
            <mxPoint x="1620" y="830" as="targetPoint" />
          </mxGeometry>
        </mxCell>
      </root>
    </mxGraphModel>
  </diagram>
</mxfile>
